<?xml version="1.0" encoding="utf-8"?>
<!-- Generator: Adobe Illustrator 23.0.3, SVG Export Plug-In . SVG Version: 6.00 Build 0)  -->
<svg version="1.1" id="Capa_1" xmlns="http://www.w3.org/2000/svg" xmlns:xlink="http://www.w3.org/1999/xlink" x="0px" y="0px"
	 viewBox="0 0 1200 1200" enable-background="new 0 0 1200 1200" xml:space="preserve">
<path fill="white	" d="M588.832,565.215h22.336v69.573h-22.336V565.215z M683.995,970.971l-9.555-37.939
	c-23.971,5.355-48.878,8.202-74.44,8.202c-13.323,0-26.462-0.794-39.392-2.287l-5.551,38.68c14.853,1.746,29.922,2.68,44.943,2.68
	C628.369,980.307,656.574,977.149,683.995,970.971z M609.154,144.119c56.635,1.121,110.765,12.618,160.575,32.666l15.271-35.97
	c-54.508-22.041-113.797-34.641-175.845-35.772V144.119z M398.519,852.161l23.447-31.114c-12.777-10.298-24.732-21.725-35.673-34.23
	c-26.453-30.237-45.893-65.503-57.527-103.315l-37.775,10.308C310.186,756.917,348.22,811.889,398.519,852.161z M553.242,861.382
	l5.56-38.74c-19.609-3.621-38.352-9.733-55.853-18.07c-0.245-0.092-0.497-0.141-0.737-0.256c-0.223-0.107-0.408-0.255-0.618-0.376
	C425.877,767.255,373.537,689.628,373.537,600c0-84.703,46.772-158.647,115.817-197.485l-17.838-35.097
	C389.482,412.654,334.462,499.866,334.462,600C334.462,728.326,427.896,839.071,553.242,861.382z M865.878,229.516
	c0.542,0.389,1.021,0.831,1.451,1.306c73.695,53.512,130.811,128.508,162.074,215.723l37.057-12.412
	c-45.491-127.551-141.88-231.133-264.614-286.154l-15.27,35.967c27.446,12.356,53.46,27.348,77.713,44.656
	C864.837,228.849,865.37,229.153,865.878,229.516z M1072.304,451.485l-37.054,12.41c13.476,43.001,20.748,88.719,20.748,136.105
	c0,34.556-3.885,68.217-11.203,100.592l38.077,9.419c8.073-35.722,12.201-72.546,12.201-110.011
	C1095.073,548.278,1087.085,498.389,1072.304,451.485z M1150,600c0,303.756-246.243,550-550,550S50,903.756,50,600
	C50,296.244,296.244,50,600,50S1150,296.244,1150,600z M964.67,948.349c-3.591-3.561-9.387-3.531-12.946,0.06
	c-93.692,94.578-218.603,146.665-351.724,146.665c-269.924,0-490.053-217.144-494.956-485.919h39.069
	c2.286,116.315,48.065,225.852,129.529,309.32c1.794,1.836,4.172,2.759,6.551,2.759c2.307,0,4.615-0.867,6.394-2.604
	c3.619-3.531,3.689-9.324,0.158-12.945C206.502,823.471,162.311,714.908,162.311,600c0-113.309,42.321-216.971,113.202-294.975
	l28.972,27.463C237.932,405.933,201.386,500.56,201.386,600c0,35.611,4.698,70.92,13.964,104.954
	c1.109,4.074,4.799,6.753,8.827,6.753c0.797,0,1.606-0.104,2.411-0.325c0.002-0.001,0.004-0.002,0.005-0.002
	c0.01-0.002,0.019-0.001,0.029-0.004l46.701-12.745c21.024,69.503,63.663,129.699,120.069,172.747
	c0.375,0.411,0.781,0.801,1.242,1.148c0.433,0.326,0.887,0.603,1.353,0.842c42.34,31.68,92.261,53.745,146.495,62.991l-6.87,47.871
	c-0.001,0.008,0,0.016-0.001,0.025c-0.001,0.005-0.003,0.009-0.003,0.014c-0.712,5.006,2.768,9.64,7.773,10.352
	c18.617,2.649,37.667,3.993,56.619,3.993c32.952,0,65.711-4.031,97.365-11.98c0.005-0.002,0.01-0.001,0.016-0.002
	c3.641-0.916,6.21-3.901,6.789-7.383c0.005-0.032,0.019-0.062,0.024-0.094c0.081-0.521,0.1-1.056,0.088-1.594
	c-0.001-0.068,0.014-0.133,0.011-0.202c-0.017-0.382-0.103-0.768-0.169-1.153c-0.039-0.227-0.043-0.453-0.1-0.68
	c0-0.001-0.001-0.002-0.001-0.003s0-0.002,0-0.003l-11.825-46.952C835.704,888.246,941.231,756.218,941.231,600
	c0-68.813-20.39-135.138-58.968-191.803c-2.844-4.178-8.538-5.266-12.72-2.414c-4.179,2.843-5.26,8.538-2.415,12.718
	c36.5,53.613,55.794,116.374,55.794,181.498c0,178.062-144.862,322.924-322.922,322.924c-69.586,0-134.102-22.125-186.883-59.71
	l23.492-31.173c36.413,25.667,78.527,42.629,123.078,48.965c0.437,0.063,0.872,0.092,1.301,0.092c4.483,0,8.402-3.296,9.052-7.864
	c0-0.002,0-0.003,0-0.005l6.879-47.932c7.591,0.773,15.291,1.169,23.082,1.169c31.157,0,61.341-6.213,89.716-18.47
	c4.641-2.003,6.779-7.39,4.774-12.033c-2.004-4.643-7.393-6.785-12.033-4.774c-26.07,11.258-53.812,16.968-82.457,16.968
	c-28.915,0-56.465-5.939-81.513-16.641l16.765-35.029c20.503,8.511,42.24,12.829,64.748,12.829c5.055,0,9.154-4.097,9.154-9.154
	v-57.618c0-5.057-4.099-9.154-9.154-9.154c-51.494,0-93.386-41.895-93.386-93.389c0-51.494,41.892-93.386,93.386-93.386
	c8.716,0,17.339,1.198,25.631,3.558c4.86,1.383,9.926-1.433,11.31-6.3c1.384-4.863-1.435-9.926-6.298-11.312
	c-9.922-2.822-20.231-4.255-30.643-4.255c-61.588,0-111.695,50.105-111.695,111.695c0,58.505,45.222,106.615,102.541,111.292v39.43
	c-19.54-1.153-38.35-5.993-56.029-14.466c-0.009-0.005-0.016-0.01-0.024-0.015c-4.484-2.152-9.847-0.303-12.092,4.114
	c-0.034,0.067-0.083,0.121-0.115,0.189c0,0,0,0.001-0.001,0.002c0,0-0.001,0.001-0.001,0.001l-20.594,43.027
	C436.5,748.468,391.846,679.361,391.846,600c0-114.776,93.377-208.154,208.154-208.154S808.154,485.224,808.154,600
	c0,40.715-11.752,80.146-33.984,114.034c-2.773,4.226-1.594,9.902,2.633,12.677c4.23,2.765,9.901,1.591,12.675-2.634
	C813.675,687.2,826.463,644.295,826.463,600c0-124.872-101.591-226.462-226.464-226.462c-33.657,0-65.593,7.436-94.334,20.663
	l-17.845-35.109c30.682-14.238,64.61-22.825,100.509-24.377c5.051-0.218,8.97-4.491,8.751-9.542c-0.218-5.051-4.536-8.94-9.54-8.749
	C435.361,323.001,316.153,447.563,316.153,600c0,22.347,2.674,44.425,7.777,65.84l-37.759,10.305
	c-5.927-24.427-9.092-49.921-9.092-76.145c0-22.29,2.283-44.559,6.787-66.185c1.031-4.95-2.146-9.798-7.095-10.826
	c-4.959-1.028-9.798,2.146-10.829,7.095c-4.759,22.85-7.171,46.374-7.171,69.916c0,27.891,3.388,55.001,9.731,80.966l-37.743,10.3
	c-7.317-29.716-11.063-60.364-11.063-91.267c0-97.779,37.033-190.684,104.274-261.607c0.009-0.009,0.02-0.015,0.029-0.025
	c3.478-3.668,3.323-9.461-0.346-12.942l-35.543-33.691c63.76-64.474,148.049-109.29,244.171-124.217
	c4.996-0.778,8.417-5.456,7.641-10.451c-0.776-4.997-5.467-8.406-10.451-7.644c-106.342,16.515-203.868,70.694-274.617,152.559
	c-69.489,80.406-108.618,182.666-110.749,288.863h-39.023c3.251-175.418,99.579-336.872,253.159-422.976
	c4.41-2.473,5.981-8.052,3.507-12.462c-2.47-4.41-8.046-5.975-12.462-3.51C187.267,242.738,86.618,414.441,86.618,600
	c0,283.079,230.302,513.383,513.381,513.383c138.044,0,267.574-54.012,364.731-152.089
	C968.289,957.704,968.262,951.908,964.67,948.349z M1011.991,906.359c66.331-89.056,101.39-194.994,101.39-306.358
	c0-56.576-9.223-111.034-26.204-161.977c-0.074-0.365-0.126-0.731-0.248-1.093c-0.102-0.304-0.257-0.571-0.387-0.857
	c-46.789-138.505-151.179-250.705-284.524-308.005c-0.428-0.274-0.867-0.536-1.351-0.741c-0.393-0.167-0.797-0.262-1.198-0.371
	c-61.354-25.969-128.766-40.338-199.471-40.338c-63.198,0-124.905,11.351-183.409,33.736c-4.722,1.806-7.085,7.098-5.278,11.822
	c1.806,4.72,7.1,7.08,11.822,5.278c53.578-20.501,109.956-31.382,167.711-32.424v48.128c0,5.057,4.099,9.154,9.154,9.154
	c91.834,0,177.136,28.452,247.601,76.972l-22.775,31.736c-12.681-8.693-25.89-16.667-39.564-23.875
	c-0.403-0.304-0.817-0.598-1.28-0.839c-0.409-0.213-0.834-0.355-1.257-0.501c-54.769-28.369-116.905-44.419-182.725-44.419
	c-86.322,0-168.466,27.139-237.549,78.483c-4.057,3.016-4.902,8.752-1.886,12.811s8.748,4.899,12.808,1.886
	c65.902-48.982,144.269-74.872,226.628-74.872c59.998,0,116.784,13.986,167.301,38.839l-17.957,34.521
	c-45.996-22.419-96.829-34.284-149.345-34.284c-134.616,0-257.016,79.47-311.83,202.459c-2.058,4.619,0.018,10.031,4.635,12.09
	c1.211,0.539,2.476,0.796,3.722,0.796c3.503,0,6.848-2.023,8.366-5.429c51.874-116.397,167.711-191.606,295.106-191.606
	c19.312,0,38.38,1.714,57.038,5.029l-9.834,47.084c-1.034,4.95,2.14,9.798,7.158,10.84C776.73,365.483,865.538,474.805,865.538,600
	c0,75.862-32.855,145.386-85.319,194.261l-62.683-72.433c32.47-31.39,51.779-75.129,51.779-121.828
	c0-40.955-14.621-78.555-38.91-107.868c-0.126-0.176-0.22-0.366-0.361-0.534c-0.206-0.247-0.448-0.44-0.674-0.66
	c-31.083-36.813-77.531-60.253-129.371-60.253c-93.361,0-169.314,75.953-169.314,169.316c0,41.782,15.347,81.91,43.215,112.991
	c3.373,3.758,9.162,4.077,12.927,0.703c3.764-3.373,4.08-9.163,0.703-12.927c-24.85-27.717-38.537-63.503-38.537-100.768
	c0-83.266,67.741-151.007,151.005-151.007c43.247,0,82.277,18.302,109.832,47.534l-36.934,30.788
	c-3.883,3.239-4.407,9.011-1.115,12.946c13.931,16.721,21.604,37.933,21.604,59.738c0,28.129-12.649,54.489-34.17,72.163
	l-29.74-31.83v-84.273c0-5.057-4.099-9.154-9.154-9.154h-40.645c-5.055,0-9.154,4.097-9.154,9.154v87.882
	c0,5.057,4.099,9.154,9.154,9.154h36.671l32.242,34.509c0.26,0.882,0.614,1.748,1.156,2.55c1.769,2.616,4.655,4.029,7.594,4.029
	c1.763,0,3.545-0.507,5.117-1.57c30.831-20.83,49.238-55.451,49.238-92.614c0-23.037-7.171-45.519-20.332-64.24l30.217-25.189
	c18.477,25.053,29.425,55.982,29.425,89.429c0,44.416-19.571,85.84-52.095,114.095c-0.034,0.029-0.074,0.046-0.108,0.076
	c-0.047,0.04-0.079,0.091-0.125,0.132c-10.985,9.504-23.439,17.511-37.113,23.624c-4.615,2.065-6.684,7.48-4.62,12.096
	c1.521,3.403,4.862,5.421,8.362,5.421c1.249,0,2.518-0.256,3.732-0.802c12.523-5.599,24.118-12.631,34.664-20.82l62.701,72.453
	c-39.911,32.417-89.293,53.633-143.369,58.277c-5.038,0.432-8.77,4.866-8.336,9.905c0.41,4.771,4.407,8.371,9.11,8.371
	c0.262,0,0.527-0.012,0.794-0.033c59.647-5.123,115.563-28.934,160.553-67.733c0.196-0.144,0.404-0.263,0.592-0.425
	c0.159-0.138,0.277-0.303,0.424-0.449c7.844-6.829,15.392-14.06,22.522-21.79c48.463-52.543,75.153-120.87,75.153-192.398
	c0-130.774-90.683-245.299-216.888-275.846l8.005-38.331c25.608,6.072,50.299,15.24,73.596,27.334
	c0.166,0.1,0.308,0.225,0.482,0.316c0.164,0.086,0.339,0.115,0.506,0.19c27.297,14.291,52.666,32.591,75.37,54.635
	c3.489,3.387,9.501,3.351,12.945-0.191l33.38-34.387C938.655,402.378,980.305,496.41,980.305,600
	c0,148.942-87.672,284.956-223.354,346.513c-4.604,2.089-6.644,7.515-4.555,12.12c1.532,3.379,4.86,5.376,8.342,5.376
	c1.264,0,2.549-0.265,3.776-0.819c109.57-49.711,189.214-145.77,220.027-258.64l38.068,9.416
	c-50.279,186.258-220.678,323.726-422.609,323.726c-92.891,0-181.222-28.555-256.06-82.678l23.548-31.248
	c33.747,24.28,71.342,43.376,111.572,56.171c0.922,0.292,1.858,0.432,2.777,0.432c3.88,0,7.483-2.488,8.721-6.383
	c1.532-4.819-1.131-9.965-5.95-11.5C383.652,930.38,300.012,856.772,255.135,760.54c-2.137-4.583-7.58-6.565-12.166-4.428
	c-4.582,2.137-6.563,7.584-4.427,12.164c26.526,56.884,65.98,106.219,114.322,144.469l-29.11,38.629
	c-1.392,1.848-1.941,4.048-1.781,6.186c0.015,0.199-0.001,0.399,0.026,0.596c0.004,0.031,0.017,0.06,0.022,0.092
	c0.344,2.285,1.539,4.444,3.53,5.946c79.578,60.061,174.481,91.807,274.447,91.807c210.512,0,388.132-143.4,440.388-337.638
	l38.126,9.431c-15.96,60.066-43.28,116.71-81.204,167.629c-3.02,4.056-2.181,9.789,1.873,12.811c1.642,1.222,3.56,1.812,5.461,1.812
	C1007.437,910.045,1010.196,908.773,1011.991,906.359z M765.584,301.513c23.385,13.009,45.344,28.857,65.433,47.359l27.09-27.907
	c-22.513-20.84-47.539-38.997-74.575-53.957L765.584,301.513z M862.472,249.964L839.69,281.71
	c12.768,9.639,24.939,20.026,36.449,31.098c0.53,0.334,1.035,0.723,1.503,1.178c0.477,0.463,0.885,0.968,1.239,1.499
	C952.72,387.876,998.614,488.672,998.614,600c0,29.563-3.309,58.637-9.618,86.791l38.018,9.404
	c6.972-30.966,10.675-63.154,10.675-96.195C1037.689,457.048,968.795,329.89,862.472,249.964z"/>
</svg>
