<?xml version="1.0" encoding="utf-8"?>
<!-- Generator: Adobe Illustrator 23.0.3, SVG Export Plug-In . SVG Version: 6.00 Build 0)  -->
<svg version="1.1" id="Capa_1" xmlns="http://www.w3.org/2000/svg" xmlns:xlink="http://www.w3.org/1999/xlink" x="0px" y="0px"
	 viewBox="0 0 1200 1200" enable-background="new 0 0 1200 1200" xml:space="preserve">
<path fill="white" d="M568.965,1130.385H83.484l42.02-42.02h953.053c5.416,0,9.807-4.39,9.807-9.807V893.654
	c0-5.418-4.391-9.807-9.807-9.807h-51.827V708.75c0-5.418-4.391-9.807-9.807-9.807h-51.827V331.72c0-5.418-4.391-9.807-9.807-9.807
	c-5.416,0-9.807,4.39-9.807,9.807c0,0,0,623.39,0,623.568c0,2.553,1.075,5.14,2.883,6.944l44.884,44.884H647.114
	c-5.416,0-9.807,4.39-9.807,9.807v51.827H131.25V439.426h42.02v104.526c0,5.418,4.391,9.807,9.807,9.807
	c5.416,0,9.807-4.39,9.807-9.807V429.619c0-5.418-4.391-9.807-9.807-9.807H131.25V131.253h743.901c5.416,0,9.807-4.39,9.807-9.807
	c0-5.418-4.391-9.807-9.807-9.807H125.506L83.485,69.615h485.48c5.416,0,9.807-4.39,9.807-9.807S574.381,50,568.965,50
	c0,0-508.961,0-509.172,0.002c-5.301,0.04-9.794,4.493-9.792,9.807c0,0,0,1080.184,0,1080.384c0,5.251,4.514,9.807,9.807,9.807
	h509.157c5.416,0,9.807-4.39,9.807-9.807S574.381,1130.385,568.965,1130.385z M1007.115,718.557v274.69l-42.02-42.02v-232.67
	H1007.115z M656.922,1026.731c0,0,359.813,0,360.001,0c5.244,0,9.807-4.568,9.807-9.807V903.461h42.02v165.289H656.922V1026.731z
	 M111.635,1074.497l-42.02,42.02V83.485l42.02,42.022V1074.497z M1140.192,50H651.052c-5.416,0-9.807,4.39-9.807,9.807
	s4.391,9.807,9.807,9.807H945.48v51.83c0,5.418,4.391,9.807,9.807,9.807h113.462v165.289h-42.02V183.08
	c0-5.418-4.391-9.807-9.807-9.807H183.078c-5.416,0-9.807,4.39-9.807,9.807v171.393c0,5.418,4.391,9.807,9.807,9.807
	c5.416,0,9.807-4.39,9.807-9.807v-38.317h42.02v288.559h-51.827c-5.416,0-9.807,4.39-9.807,9.807v402.4
	c0,5.418,4.391,9.807,9.807,9.807h387.26c5.416,0,9.807-4.39,9.807-9.807c0-5.418-4.391-9.807-9.807-9.807H192.885V624.33h42.02
	c0,0,0,330.858,0,330.958c0,5.273,4.531,9.807,9.807,9.807h630.831c5.416,0,9.807-4.39,9.807-9.807c0-5.418-4.391-9.807-9.807-9.807
	H268.388c0,0,44.884-44.884,44.902-44.902l58.752-58.753h149.258c5.416,0,9.807-4.39,9.807-9.807c0-5.418-4.391-9.807-9.807-9.807
	H377.789V456.471c0-5.418-4.391-9.807-9.807-9.807s-9.807,4.39-9.807,9.807v45.896h-42.02v-186.21h274.039v51.827
	c0,5.418,4.391,9.807,9.807,9.807h208.342l-42.02,42.02H500.117c-5.416,0-9.807,4.39-9.807,9.807c0,5.418,4.391,9.807,9.807,9.807
	h90.077v42.02h-98.941c-5.416,0-9.807,4.39-9.807,9.807V708.75c0,5.418,4.391,9.807,9.807,9.807h83.792
	c5.416,0,9.807-4.39,9.807-9.807c0-5.418-4.391-9.807-9.807-9.807H501.06V501.061h197.882v28.768c0,5.418,4.391,9.807,9.807,9.807
	c5.416,0,9.807-4.39,9.807-9.807v-38.575c0-5.418-4.391-9.807-9.807-9.807h-98.941v-42.02c0,0,160.552,0,160.576,0
	c2.555,0,5.139-1.074,6.943-2.882l44.884-44.884v137.776c0,5.418,4.391,9.807,9.807,9.807c5.416,0,9.807-4.39,9.807-9.807
	c0,0,0-161.449,0-161.452c0-5.308-4.498-9.807-9.807-9.807h-222.21v-42.02h274.037v324.889c0,5.418,4.391,9.807,9.807,9.807
	c5.416,0,9.807-4.39,9.807-9.807V310.41c0,0,58.711-58.711,58.752-58.752c5.334-5.334,2.41-15.086-5.004-16.558
	c-0.634-0.126-1.276-0.194-1.92-0.194H841.826v-42.02h165.289v448.159c0,5.418,4.391,9.807,9.807,9.807
	c5.416,0,9.807-4.39,9.807-9.807V316.157h42.02v506.716c0,5.418,4.391,9.807,9.807,9.807s9.807-4.39,9.807-9.807V121.445
	c0-5.418-4.391-9.807-9.807-9.807H965.095V69.615h165.289v1060.77H651.052c-5.416,0-9.807,4.39-9.807,9.807s4.391,9.807,9.807,9.807
	h489.139c5.416,0,9.807-4.39,9.807-9.807V59.807C1149.999,54.39,1145.608,50,1140.192,50z M358.174,521.981v305.977l-42.02,42.02
	V521.981H358.174z M306.347,296.542c-5.416,0-9.807,4.39-9.807,9.807v583.244l-42.02,42.02V254.522h677.092l-42.02,42.02H306.347z
	 M822.211,234.907H244.712c-5.416,0-9.807,4.39-9.807,9.807v51.827h-42.02V192.887h629.326V234.907z M600.001,822.212
	c-5.416,0-9.807,4.39-9.807,9.807v51.827H397.139c-5.416,0-9.807,4.39-9.807,9.807c0,5.418,4.391,9.807,9.807,9.807h496.514
	c5.416,0,9.807-4.39,9.807-9.807V708.75c0-5.418-4.391-9.807-9.807-9.807h-51.827V600c0-5.418-4.391-9.807-9.807-9.807h-51.827
	v-80.372c0-5.418-4.391-9.807-9.807-9.807c-5.416,0-9.807,4.39-9.807,9.807v250.756H656.922v-42.02h51.827
	c5.416,0,9.807-4.39,9.807-9.807V600c0-5.418-4.391-9.807-9.807-9.807h-51.827v-37.305c0-5.418-4.391-9.807-9.807-9.807h-94.227
	c-5.416,0-9.807,4.39-9.807,9.807v49.909c0,5.418,4.391,9.807,9.807,9.807s9.807-4.39,9.807-9.807v-40.101h74.612v74.612h-37.306
	c-5.416,0-9.807,4.39-9.807,9.807c0,5.418,4.391,9.807,9.807,9.807h47.114c5.416,0,9.807-4.39,9.807-9.807v-37.308h42.02v89.135
	h-51.827c-5.416,0-9.807,4.39-9.807,9.807v51.827H439.424c0,0,0-330.958,0-330.958c0-2.558-1.072-5.138-2.883-6.944l-44.884-44.884
	h134.351c5.416,0,9.807-4.39,9.807-9.807s-4.391-9.807-9.807-9.807c0,0-158.017,0-158.026,0c-3.234,0-6.349,1.708-8.158,4.371
	c-2.511,3.761-2.006,9.15,1.233,12.381l58.752,58.752v336.705c0,5.418,4.391,9.807,9.807,9.807h336.707l42.02,42.02H600.001z
	 M883.846,718.557v165.289H609.808v-42.02c0,0,222.123,0,222.21,0c5.246,0,9.807-4.504,9.807-9.807V718.557H883.846z
	 M822.211,609.807v198.536l-42.02-42.02V609.807H822.211z"/>
</svg>
